{
  "asset": {
    "generator": "Khronos glTF Blender I/O v3.4.50",
    "version": "2.0"
  },
  "scene": 0,
  "scenes": [
    {
      "name": "Scene",
      "nodes": [
        0,
        1,
        2,
        3,
        4,
        5,
        6
      ]
    }
  ],
  "nodes": [
    {
      "mesh": 0,
      "name": "metal_tool_chest_chest",
      "translation": [
        -0.026742221787571907,
        0.19080910086631775,
        0.02674218639731407
      ]
    },
    {
      "mesh": 1,
      "name": "metal_tool_chest_hinge_chest",
      "translation": [
        -0.026742219924926758,
        0.32267966866493225,
        0.009747087955474854
      ]
    },
    {
      "mesh": 2,
      "name": "metal_tool_chest_lid",
      "translation": [
        -0.026742205023765564,
        0.3450417220592499,
        -0.12888431549072266
      ]
    },
    {
      "mesh": 3,
      "name": "metal_tool_chest_handle_left",
      "translation": [
        -0.3631300628185272,
        0.21811121702194214,
        0.026742160320281982
      ]
    },
    {
      "mesh": 4,
      "name": "metal_tool_chest_lock",
      "translation": [
        -0.02674223482608795,
        0.3034884035587311,
        0.1832839399576187
      ]
    },
    {
      "mesh": 5,
      "name": "metal_tool_chest_hinge_lid",
      "translation": [
        -0.02674219012260437,
        0.47680288553237915,
        -0.14437337219715118
      ]
    },
    {
      "mesh": 6,
      "name": "metal_tool_chest_handle_right",
      "translation": [
        0.3096456825733185,
        0.21811112761497498,
        0.02674219012260437
      ]
    }
  ],
  "materials": [
    {
      "name": "metal_tool_chest_paint",
      "pbrMetallicRoughness": {
        "baseColorFactor": [
          0.3467040563550296,
          0.0822827071298148,
          0.06124605423161761,
          1
        ],
        "metallicFactor": 0,
        "roughnessFactor": 1
      }
    },
    {
      "name": "metal_tool_chest_dark",
      "pbrMetallicRoughness": {
        "baseColorFactor": [
          0.0595112381629812,
          0.04970656598412723,
          0.042311410620809675,
          1
        ],
        "metallicFactor": 0,
        "roughnessFactor": 1
      }
    },
    {
      "name": "metal_tool_chest_metal",
      "pbrMetallicRoughness": {
        "baseColorFactor": [
          0.4019777798321958,
          0.38132601143253014,
          0.30946892281750854,
          1
        ],
        "metallicFactor": 0,
        "roughnessFactor": 1
      }
    }
  ],
  "meshes": [
    {
      "name": "Cube.031",
      "primitives": [
        {
          "attributes": {
            "POSITION": 0,
            "TEXCOORD_0": 1,
            "NORMAL": 2
          },
          "indices": 28,
          "material": 0
        },
        {
          "attributes": {
            "POSITION": 0,
            "TEXCOORD_0": 1,
            "NORMAL": 2
          },
          "indices": 29,
          "material": 1
        }
      ]
    },
    {
      "name": "Plane.011",
      "primitives": [
        {
          "attributes": {
            "POSITION": 4,
            "TEXCOORD_0": 5,
            "NORMAL": 6
          },
          "indices": 30,
          "material": 1
        }
      ]
    },
    {
      "name": "Cube.035",
      "primitives": [
        {
          "attributes": {
            "POSITION": 8,
            "TEXCOORD_0": 9,
            "NORMAL": 10
          },
          "indices": 31,
          "material": 0
        },
        {
          "attributes": {
            "POSITION": 8,
            "TEXCOORD_0": 9,
            "NORMAL": 10
          },
          "indices": 32,
          "material": 1
        }
      ]
    },
    {
      "name": "BezierCurve.003",
      "primitives": [
        {
          "attributes": {
            "POSITION": 12,
            "TEXCOORD_0": 13,
            "NORMAL": 14
          },
          "indices": 33,
          "material": 1
        }
      ]
    },
    {
      "name": "Cylinder.001",
      "primitives": [
        {
          "attributes": {
            "POSITION": 16,
            "TEXCOORD_0": 17,
            "NORMAL": 18
          },
          "indices": 34,
          "material": 1
        }
      ]
    },
    {
      "name": "Plane.001",
      "primitives": [
        {
          "attributes": {
            "POSITION": 20,
            "TEXCOORD_0": 21,
            "NORMAL": 22
          },
          "indices": 35,
          "material": 1
        }
      ]
    },
    {
      "name": "BezierCurve.001",
      "primitives": [
        {
          "attributes": {
            "POSITION": 24,
            "TEXCOORD_0": 25,
            "NORMAL": 26
          },
          "indices": 36,
          "material": 1
        }
      ]
    }
  ],
  "accessors": [
    {
      "bufferView": 0,
      "componentType": 5126,
      "count": 5568,
      "max": [
        0.3426941931247711,
        0.15791602432727814,
        0.1547558605670929
      ],
      "min": [
        -0.3426942229270935,
        -0.19000005722045898,
        -0.16089928150177002
      ],
      "type": "VEC3"
    },
    {
      "bufferView": 1,
      "componentType": 5126,
      "count": 5568,
      "type": "VEC2"
    },
    {
      "bufferView": 2,
      "componentType": 5126,
      "count": 5568,
      "type": "VEC3"
    },
    {
      "bufferView": 3,
      "componentType": 5123,
      "count": 17730,
      "type": "SCALAR"
    },
    {
      "bufferView": 4,
      "componentType": 5126,
      "count": 915,
      "max": [
        0.3323494493961334,
        0.09029656648635864,
        0.007086077239364386
      ],
      "min": [
        -0.3323494493961334,
        -0.007084783632308245,
        -0.08315195143222809
      ],
      "type": "VEC3"
    },
    {
      "bufferView": 5,
      "componentType": 5126,
      "count": 915,
      "type": "VEC2"
    },
    {
      "bufferView": 6,
      "componentType": 5126,
      "count": 915,
      "type": "VEC3"
    },
    {
      "bufferView": 7,
      "componentType": 5123,
      "count": 3654,
      "type": "SCALAR"
    },
    {
      "bufferView": 8,
      "componentType": 5126,
      "count": 1844,
      "max": [
        0.33018815517425537,
        0.3076028823852539,
        0.009295083582401276
      ],
      "min": [
        -0.33009499311447144,
        -0.005073436535894871,
        -0.06853816658258438
      ],
      "type": "VEC3"
    },
    {
      "bufferView": 9,
      "componentType": 5126,
      "count": 1844,
      "type": "VEC2"
    },
    {
      "bufferView": 10,
      "componentType": 5126,
      "count": 1844,
      "type": "VEC3"
    },
    {
      "bufferView": 11,
      "componentType": 5123,
      "count": 7428,
      "type": "SCALAR"
    },
    {
      "bufferView": 12,
      "componentType": 5126,
      "count": 333,
      "max": [
        0.004384596832096577,
        0.004022359848022461,
        0.06537967175245285
      ],
      "min": [
        -0.004378555342555046,
        -0.06238005310297012,
        -0.06537967175245285
      ],
      "type": "VEC3"
    },
    {
      "bufferView": 13,
      "componentType": 5126,
      "count": 333,
      "type": "VEC2"
    },
    {
      "bufferView": 14,
      "componentType": 5126,
      "count": 333,
      "type": "VEC3"
    },
    {
      "bufferView": 15,
      "componentType": 5123,
      "count": 1728,
      "type": "SCALAR"
    },
    {
      "bufferView": 16,
      "componentType": 5126,
      "count": 900,
      "max": [
        0.04164601489901543,
        0.013598690740764141,
        0.026446837931871414
      ],
      "min": [
        -0.013598690740764141,
        -0.013598690740764141,
        -0.028757482767105103
      ],
      "type": "VEC3"
    },
    {
      "bufferView": 17,
      "componentType": 5126,
      "count": 900,
      "type": "VEC2"
    },
    {
      "bufferView": 18,
      "componentType": 5126,
      "count": 900,
      "type": "VEC3"
    },
    {
      "bufferView": 19,
      "componentType": 5123,
      "count": 3048,
      "type": "SCALAR"
    },
    {
      "bufferView": 20,
      "componentType": 5126,
      "count": 1180,
      "max": [
        0.3321229815483093,
        0.0070847016759216785,
        0.10094752162694931
      ],
      "min": [
        -0.3321230113506317,
        -0.10094894468784332,
        -0.007086094934493303
      ],
      "type": "VEC3"
    },
    {
      "bufferView": 21,
      "componentType": 5126,
      "count": 1180,
      "type": "VEC2"
    },
    {
      "bufferView": 22,
      "componentType": 5126,
      "count": 1180,
      "type": "VEC3"
    },
    {
      "bufferView": 23,
      "componentType": 5123,
      "count": 4764,
      "type": "SCALAR"
    },
    {
      "bufferView": 24,
      "componentType": 5126,
      "count": 333,
      "max": [
        0.0043784319423139095,
        0.004022359848022461,
        0.06537967175245285
      ],
      "min": [
        -0.004384639672935009,
        -0.06238005310297012,
        -0.06537967175245285
      ],
      "type": "VEC3"
    },
    {
      "bufferView": 25,
      "componentType": 5126,
      "count": 333,
      "type": "VEC2"
    },
    {
      "bufferView": 26,
      "componentType": 5126,
      "count": 333,
      "type": "VEC3"
    },
    {
      "bufferView": 27,
      "componentType": 5123,
      "count": 1728,
      "type": "SCALAR"
    },
    {
      "bufferView": 28,
      "componentType": 5125,
      "count": 3102,
      "type": "SCALAR",
      "min": [
        0
      ],
      "max": [
        1379
      ]
    },
    {
      "bufferView": 29,
      "componentType": 5125,
      "count": 14628,
      "type": "SCALAR",
      "min": [
        1380
      ],
      "max": [
        5567
      ]
    },
    {
      "bufferView": 30,
      "componentType": 5125,
      "count": 3654,
      "type": "SCALAR",
      "min": [
        0
      ],
      "max": [
        914
      ]
    },
    {
      "bufferView": 31,
      "componentType": 5125,
      "count": 1836,
      "type": "SCALAR",
      "min": [
        0
      ],
      "max": [
        489
      ]
    },
    {
      "bufferView": 32,
      "componentType": 5125,
      "count": 5592,
      "type": "SCALAR",
      "min": [
        490
      ],
      "max": [
        1843
      ]
    },
    {
      "bufferView": 33,
      "componentType": 5125,
      "count": 1728,
      "type": "SCALAR",
      "min": [
        0
      ],
      "max": [
        332
      ]
    },
    {
      "bufferView": 34,
      "componentType": 5125,
      "count": 3048,
      "type": "SCALAR",
      "min": [
        0
      ],
      "max": [
        899
      ]
    },
    {
      "bufferView": 35,
      "componentType": 5125,
      "count": 4764,
      "type": "SCALAR",
      "min": [
        0
      ],
      "max": [
        1179
      ]
    },
    {
      "bufferView": 36,
      "componentType": 5125,
      "count": 1728,
      "type": "SCALAR",
      "min": [
        0
      ],
      "max": [
        332
      ]
    }
  ],
  "bufferViews": [
    {
      "buffer": 0,
      "byteLength": 66816,
      "byteOffset": 0,
      "target": 34962
    },
    {
      "buffer": 0,
      "byteLength": 44544,
      "byteOffset": 66816,
      "target": 34962
    },
    {
      "buffer": 0,
      "byteLength": 66816,
      "byteOffset": 111360,
      "target": 34962
    },
    {
      "buffer": 0,
      "byteLength": 35460,
      "byteOffset": 178176,
      "target": 34963
    },
    {
      "buffer": 0,
      "byteLength": 10980,
      "byteOffset": 213636,
      "target": 34962
    },
    {
      "buffer": 0,
      "byteLength": 7320,
      "byteOffset": 224616,
      "target": 34962
    },
    {
      "buffer": 0,
      "byteLength": 10980,
      "byteOffset": 231936,
      "target": 34962
    },
    {
      "buffer": 0,
      "byteLength": 7308,
      "byteOffset": 242916,
      "target": 34963
    },
    {
      "buffer": 0,
      "byteLength": 22128,
      "byteOffset": 250224,
      "target": 34962
    },
    {
      "buffer": 0,
      "byteLength": 14752,
      "byteOffset": 272352,
      "target": 34962
    },
    {
      "buffer": 0,
      "byteLength": 22128,
      "byteOffset": 287104,
      "target": 34962
    },
    {
      "buffer": 0,
      "byteLength": 14856,
      "byteOffset": 309232,
      "target": 34963
    },
    {
      "buffer": 0,
      "byteLength": 3996,
      "byteOffset": 324088,
      "target": 34962
    },
    {
      "buffer": 0,
      "byteLength": 2664,
      "byteOffset": 328084,
      "target": 34962
    },
    {
      "buffer": 0,
      "byteLength": 3996,
      "byteOffset": 330748,
      "target": 34962
    },
    {
      "buffer": 0,
      "byteLength": 3456,
      "byteOffset": 334744,
      "target": 34963
    },
    {
      "buffer": 0,
      "byteLength": 10800,
      "byteOffset": 338200,
      "target": 34962
    },
    {
      "buffer": 0,
      "byteLength": 7200,
      "byteOffset": 349000,
      "target": 34962
    },
    {
      "buffer": 0,
      "byteLength": 10800,
      "byteOffset": 356200,
      "target": 34962
    },
    {
      "buffer": 0,
      "byteLength": 6096,
      "byteOffset": 367000,
      "target": 34963
    },
    {
      "buffer": 0,
      "byteLength": 14160,
      "byteOffset": 373096,
      "target": 34962
    },
    {
      "buffer": 0,
      "byteLength": 9440,
      "byteOffset": 387256,
      "target": 34962
    },
    {
      "buffer": 0,
      "byteLength": 14160,
      "byteOffset": 396696,
      "target": 34962
    },
    {
      "buffer": 0,
      "byteLength": 9528,
      "byteOffset": 410856,
      "target": 34963
    },
    {
      "buffer": 0,
      "byteLength": 3996,
      "byteOffset": 420384,
      "target": 34962
    },
    {
      "buffer": 0,
      "byteLength": 2664,
      "byteOffset": 424380,
      "target": 34962
    },
    {
      "buffer": 0,
      "byteLength": 3996,
      "byteOffset": 427044,
      "target": 34962
    },
    {
      "buffer": 0,
      "byteLength": 3456,
      "byteOffset": 431040,
      "target": 34963
    },
    {
      "buffer": 1,
      "byteOffset": 0,
      "byteLength": 12408,
      "target": 34963
    },
    {
      "buffer": 1,
      "byteOffset": 12408,
      "byteLength": 58512,
      "target": 34963
    },
    {
      "buffer": 1,
      "byteOffset": 70920,
      "byteLength": 14616,
      "target": 34963
    },
    {
      "buffer": 1,
      "byteOffset": 85536,
      "byteLength": 7344,
      "target": 34963
    },
    {
      "buffer": 1,
      "byteOffset": 92880,
      "byteLength": 22368,
      "target": 34963
    },
    {
      "buffer": 1,
      "byteOffset": 115248,
      "byteLength": 6912,
      "target": 34963
    },
    {
      "buffer": 1,
      "byteOffset": 122160,
      "byteLength": 12192,
      "target": 34963
    },
    {
      "buffer": 1,
      "byteOffset": 134352,
      "byteLength": 19056,
      "target": 34963
    },
    {
      "buffer": 1,
      "byteOffset": 153408,
      "byteLength": 6912,
      "target": 34963
    }
  ],
  "buffers": [
    {
      "byteLength": 434496,
      "uri": "metal_tool_chest.bin"
    },
    {
      "uri": "parts.bin",
      "byteLength": 160320
    }
  ]
}
