{
  "asset": {
    "generator": "Khronos glTF Blender I/O v5.1.19",
    "version": "2.0"
  },
  "scene": 0,
  "scenes": [
    {
      "name": "Scene",
      "nodes": [
        0,
        1,
        2,
        3,
        4,
        5,
        6
      ]
    }
  ],
  "nodes": [
    {
      "mesh": 0,
      "name": "mounted_fluorescent_lights_a",
      "translation": [
        0,
        0,
        0.30000001192092896
      ]
    },
    {
      "mesh": 1,
      "name": "mounted_fluorescent_lights_f",
      "translation": [
        0,
        0,
        -0.20000000298023224
      ]
    },
    {
      "mesh": 2,
      "name": "mounted_fluorescent_lights_d"
    },
    {
      "mesh": 3,
      "name": "mounted_fluorescent_lights_b",
      "translation": [
        0,
        0,
        0.20000000298023224
      ]
    },
    {
      "mesh": 4,
      "name": "mounted_fluorescent_lights_g",
      "translation": [
        0,
        0,
        -0.30000001192092896
      ]
    },
    {
      "mesh": 5,
      "name": "mounted_fluorescent_lights_e",
      "translation": [
        0,
        0,
        -0.10000000149011612
      ]
    },
    {
      "mesh": 6,
      "name": "mounted_fluorescent_lights_c",
      "translation": [
        0,
        0,
        0.10000000149011612
      ]
    }
  ],
  "materials": [
    {
      "name": "part_184_184_184",
      "pbrMetallicRoughness": {
        "baseColorFactor": [
          0.4793201831008268,
          0.4793201831008268,
          0.4793201831008268,
          1
        ],
        "metallicFactor": 0,
        "roughnessFactor": 1
      }
    }
  ],
  "meshes": [
    {
      "name": "Cylinder.025",
      "primitives": [
        {
          "attributes": {
            "POSITION": 0,
            "NORMAL": 1,
            "TEXCOORD_0": 2
          },
          "indices": 53,
          "material": 0
        },
        {
          "attributes": {
            "POSITION": 4,
            "NORMAL": 5,
            "TEXCOORD_0": 6
          },
          "indices": 54,
          "material": 0
        }
      ]
    },
    {
      "name": "Cylinder.027",
      "primitives": [
        {
          "attributes": {
            "POSITION": 8,
            "NORMAL": 9,
            "TEXCOORD_0": 10
          },
          "indices": 55,
          "material": 0
        },
        {
          "attributes": {
            "POSITION": 12,
            "NORMAL": 13,
            "TEXCOORD_0": 14
          },
          "indices": 56,
          "material": 0
        }
      ]
    },
    {
      "name": "Cylinder.028",
      "primitives": [
        {
          "attributes": {
            "POSITION": 16,
            "NORMAL": 17,
            "TEXCOORD_0": 18
          },
          "indices": 57,
          "material": 0
        },
        {
          "attributes": {
            "POSITION": 20,
            "NORMAL": 21,
            "TEXCOORD_0": 22
          },
          "indices": 58,
          "material": 0
        }
      ]
    },
    {
      "name": "Cylinder.030",
      "primitives": [
        {
          "attributes": {
            "POSITION": 24,
            "NORMAL": 25,
            "TEXCOORD_0": 26
          },
          "indices": 59,
          "material": 0
        },
        {
          "attributes": {
            "POSITION": 28,
            "NORMAL": 29,
            "TEXCOORD_0": 30
          },
          "indices": 60,
          "material": 0
        }
      ]
    },
    {
      "name": "Cube.008",
      "primitives": [
        {
          "attributes": {
            "POSITION": 31,
            "NORMAL": 32,
            "TEXCOORD_0": 33
          },
          "indices": 61,
          "material": 0
        },
        {
          "attributes": {
            "POSITION": 35,
            "NORMAL": 36,
            "TEXCOORD_0": 37
          },
          "indices": 62,
          "material": 0
        }
      ]
    },
    {
      "name": "Cylinder.002",
      "primitives": [
        {
          "attributes": {
            "POSITION": 39,
            "NORMAL": 40,
            "TEXCOORD_0": 41
          },
          "indices": 63,
          "material": 0
        },
        {
          "attributes": {
            "POSITION": 43,
            "NORMAL": 44,
            "TEXCOORD_0": 45
          },
          "indices": 64,
          "material": 0
        }
      ]
    },
    {
      "name": "Cylinder.003",
      "primitives": [
        {
          "attributes": {
            "POSITION": 46,
            "NORMAL": 47,
            "TEXCOORD_0": 48
          },
          "indices": 65,
          "material": 0
        },
        {
          "attributes": {
            "POSITION": 50,
            "NORMAL": 51,
            "TEXCOORD_0": 52
          },
          "indices": 66,
          "material": 0
        }
      ]
    }
  ],
  "accessors": [
    {
      "bufferView": 0,
      "componentType": 5126,
      "count": 1038,
      "max": [
        0.4560903012752533,
        8.53327801451087e-05,
        0.0200848076492548
      ],
      "min": [
        -0.4560903012752533,
        -0.03526782989501953,
        -0.020084809511899948
      ],
      "type": "VEC3"
    },
    {
      "bufferView": 1,
      "componentType": 5126,
      "count": 1038,
      "type": "VEC3"
    },
    {
      "bufferView": 2,
      "componentType": 5126,
      "count": 1038,
      "type": "VEC2"
    },
    {
      "bufferView": 3,
      "componentType": 5123,
      "count": 3720,
      "type": "SCALAR"
    },
    {
      "bufferView": 4,
      "componentType": 5126,
      "count": 204,
      "max": [
        0.442333847284317,
        -0.0197143591940403,
        0.00701889768242836
      ],
      "min": [
        -0.442333847284317,
        -0.033990778028964996,
        -0.00725784245878458
      ],
      "type": "VEC3"
    },
    {
      "bufferView": 5,
      "componentType": 5126,
      "count": 204,
      "type": "VEC3"
    },
    {
      "bufferView": 6,
      "componentType": 5126,
      "count": 204,
      "type": "VEC2"
    },
    {
      "bufferView": 7,
      "componentType": 5123,
      "count": 768,
      "type": "SCALAR"
    },
    {
      "bufferView": 8,
      "componentType": 5126,
      "count": 2788,
      "max": [
        0.4554613530635834,
        8.533366053598002e-05,
        0.022410010918974876
      ],
      "min": [
        -0.4554613530635834,
        -0.031931374222040176,
        -0.022448448464274406
      ],
      "type": "VEC3"
    },
    {
      "bufferView": 9,
      "componentType": 5126,
      "count": 2788,
      "type": "VEC3"
    },
    {
      "bufferView": 10,
      "componentType": 5126,
      "count": 2788,
      "type": "VEC2"
    },
    {
      "bufferView": 11,
      "componentType": 5123,
      "count": 10716,
      "type": "SCALAR"
    },
    {
      "bufferView": 12,
      "componentType": 5126,
      "count": 612,
      "max": [
        0.442333847284317,
        -0.01740339957177639,
        0.02284516952931881
      ],
      "min": [
        -0.442333847284317,
        -0.031679823994636536,
        -0.02288360893726349
      ],
      "type": "VEC3"
    },
    {
      "bufferView": 13,
      "componentType": 5126,
      "count": 612,
      "type": "VEC3"
    },
    {
      "bufferView": 14,
      "componentType": 5126,
      "count": 612,
      "type": "VEC2"
    },
    {
      "bufferView": 15,
      "componentType": 5123,
      "count": 2304,
      "type": "SCALAR"
    },
    {
      "bufferView": 16,
      "componentType": 5126,
      "count": 2230,
      "max": [
        0.4554613530635834,
        8.53327801451087e-05,
        0.021078461781144142
      ],
      "min": [
        -0.4554613530635834,
        -0.03226889297366142,
        -0.02111145295202732
      ],
      "type": "VEC3"
    },
    {
      "bufferView": 17,
      "componentType": 5126,
      "count": 2230,
      "type": "VEC3"
    },
    {
      "bufferView": 18,
      "componentType": 5126,
      "count": 2230,
      "type": "VEC2"
    },
    {
      "bufferView": 19,
      "componentType": 5123,
      "count": 9084,
      "type": "SCALAR"
    },
    {
      "bufferView": 20,
      "componentType": 5126,
      "count": 408,
      "max": [
        0.442333847284317,
        -0.017349135130643845,
        0.020528828725218773
      ],
      "min": [
        -0.442333847284317,
        -0.03162555396556854,
        -0.020710017532110214
      ],
      "type": "VEC3"
    },
    {
      "bufferView": 21,
      "componentType": 5126,
      "count": 408,
      "type": "VEC3"
    },
    {
      "bufferView": 22,
      "componentType": 5126,
      "count": 408,
      "type": "VEC2"
    },
    {
      "bufferView": 23,
      "componentType": 5123,
      "count": 1536,
      "type": "SCALAR"
    },
    {
      "bufferView": 24,
      "componentType": 5126,
      "count": 1948,
      "max": [
        0.4560905992984772,
        8.53327801451087e-05,
        0.020306134596467018
      ],
      "min": [
        -0.4560903012752533,
        -0.03526783362030983,
        -0.020141059532761574
      ],
      "type": "VEC3"
    },
    {
      "bufferView": 25,
      "componentType": 5126,
      "count": 1948,
      "type": "VEC3"
    },
    {
      "bufferView": 26,
      "componentType": 5126,
      "count": 1948,
      "type": "VEC2"
    },
    {
      "bufferView": 27,
      "componentType": 5123,
      "count": 7224,
      "type": "SCALAR"
    },
    {
      "bufferView": 28,
      "componentType": 5126,
      "count": 408,
      "max": [
        0.4423341453075409,
        -0.019714346155524254,
        0.01887563243508339
      ],
      "min": [
        -0.442333847284317,
        -0.033990781754255295,
        -0.01871047168970108
      ],
      "type": "VEC3"
    },
    {
      "bufferView": 29,
      "componentType": 5126,
      "count": 408,
      "type": "VEC3"
    },
    {
      "bufferView": 30,
      "componentType": 5126,
      "count": 408,
      "type": "VEC2"
    },
    {
      "bufferView": 31,
      "componentType": 5126,
      "count": 532,
      "max": [
        0.452747106552124,
        1.0341124623280962e-09,
        0.024827178567647934
      ],
      "min": [
        -0.452747106552124,
        -0.027027681469917297,
        -0.025351762771606445
      ],
      "type": "VEC3"
    },
    {
      "bufferView": 32,
      "componentType": 5126,
      "count": 532,
      "type": "VEC3"
    },
    {
      "bufferView": 33,
      "componentType": 5126,
      "count": 532,
      "type": "VEC2"
    },
    {
      "bufferView": 34,
      "componentType": 5123,
      "count": 1872,
      "type": "SCALAR"
    },
    {
      "bufferView": 35,
      "componentType": 5126,
      "count": 150,
      "max": [
        0.45190078020095825,
        -0.010770890861749649,
        0.022395769134163857
      ],
      "min": [
        -0.45190075039863586,
        -0.026442302390933037,
        -0.022920310497283936
      ],
      "type": "VEC3"
    },
    {
      "bufferView": 36,
      "componentType": 5126,
      "count": 150,
      "type": "VEC3"
    },
    {
      "bufferView": 37,
      "componentType": 5126,
      "count": 150,
      "type": "VEC2"
    },
    {
      "bufferView": 38,
      "componentType": 5123,
      "count": 504,
      "type": "SCALAR"
    },
    {
      "bufferView": 39,
      "componentType": 5126,
      "count": 1824,
      "max": [
        0.4554613530635834,
        8.535356755601242e-05,
        0.021078459918498993
      ],
      "min": [
        -0.4554613530635834,
        -0.032268911600112915,
        -0.02111145481467247
      ],
      "type": "VEC3"
    },
    {
      "bufferView": 40,
      "componentType": 5126,
      "count": 1824,
      "type": "VEC3"
    },
    {
      "bufferView": 41,
      "componentType": 5126,
      "count": 1824,
      "type": "VEC2"
    },
    {
      "bufferView": 42,
      "componentType": 5123,
      "count": 7260,
      "type": "SCALAR"
    },
    {
      "bufferView": 43,
      "componentType": 5126,
      "count": 204,
      "max": [
        0.442333847284317,
        -0.017349151894450188,
        0.020528826862573624
      ],
      "min": [
        -0.442333847284317,
        -0.03162553906440735,
        0.006252088584005833
      ],
      "type": "VEC3"
    },
    {
      "bufferView": 44,
      "componentType": 5126,
      "count": 204,
      "type": "VEC3"
    },
    {
      "bufferView": 45,
      "componentType": 5126,
      "count": 204,
      "type": "VEC2"
    },
    {
      "bufferView": 46,
      "componentType": 5126,
      "count": 1542,
      "max": [
        0.4560905992984772,
        8.533366053598002e-05,
        0.02030613273382187
      ],
      "min": [
        -0.4560903012752533,
        -0.03526783362030983,
        -0.020141061395406723
      ],
      "type": "VEC3"
    },
    {
      "bufferView": 47,
      "componentType": 5126,
      "count": 1542,
      "type": "VEC3"
    },
    {
      "bufferView": 48,
      "componentType": 5126,
      "count": 1542,
      "type": "VEC2"
    },
    {
      "bufferView": 49,
      "componentType": 5123,
      "count": 5400,
      "type": "SCALAR"
    },
    {
      "bufferView": 50,
      "componentType": 5126,
      "count": 204,
      "max": [
        0.4423341453075409,
        -0.019714361056685448,
        0.01887563057243824
      ],
      "min": [
        -0.44233354926109314,
        -0.033990781754255295,
        0.004599100444465876
      ],
      "type": "VEC3"
    },
    {
      "bufferView": 51,
      "componentType": 5126,
      "count": 204,
      "type": "VEC3"
    },
    {
      "bufferView": 52,
      "componentType": 5126,
      "count": 204,
      "type": "VEC2"
    },
    {
      "bufferView": 53,
      "componentType": 5125,
      "count": 3720,
      "type": "SCALAR",
      "min": [
        0
      ],
      "max": [
        1037
      ]
    },
    {
      "bufferView": 54,
      "componentType": 5125,
      "count": 768,
      "type": "SCALAR",
      "min": [
        0
      ],
      "max": [
        203
      ]
    },
    {
      "bufferView": 55,
      "componentType": 5125,
      "count": 10716,
      "type": "SCALAR",
      "min": [
        0
      ],
      "max": [
        2787
      ]
    },
    {
      "bufferView": 56,
      "componentType": 5125,
      "count": 2304,
      "type": "SCALAR",
      "min": [
        0
      ],
      "max": [
        611
      ]
    },
    {
      "bufferView": 57,
      "componentType": 5125,
      "count": 9084,
      "type": "SCALAR",
      "min": [
        0
      ],
      "max": [
        2229
      ]
    },
    {
      "bufferView": 58,
      "componentType": 5125,
      "count": 1536,
      "type": "SCALAR",
      "min": [
        0
      ],
      "max": [
        407
      ]
    },
    {
      "bufferView": 59,
      "componentType": 5125,
      "count": 7224,
      "type": "SCALAR",
      "min": [
        0
      ],
      "max": [
        1947
      ]
    },
    {
      "bufferView": 60,
      "componentType": 5125,
      "count": 1536,
      "type": "SCALAR",
      "min": [
        0
      ],
      "max": [
        407
      ]
    },
    {
      "bufferView": 61,
      "componentType": 5125,
      "count": 1872,
      "type": "SCALAR",
      "min": [
        0
      ],
      "max": [
        531
      ]
    },
    {
      "bufferView": 62,
      "componentType": 5125,
      "count": 504,
      "type": "SCALAR",
      "min": [
        0
      ],
      "max": [
        149
      ]
    },
    {
      "bufferView": 63,
      "componentType": 5125,
      "count": 7260,
      "type": "SCALAR",
      "min": [
        0
      ],
      "max": [
        1823
      ]
    },
    {
      "bufferView": 64,
      "componentType": 5125,
      "count": 768,
      "type": "SCALAR",
      "min": [
        0
      ],
      "max": [
        203
      ]
    },
    {
      "bufferView": 65,
      "componentType": 5125,
      "count": 5400,
      "type": "SCALAR",
      "min": [
        0
      ],
      "max": [
        1541
      ]
    },
    {
      "bufferView": 66,
      "componentType": 5125,
      "count": 768,
      "type": "SCALAR",
      "min": [
        0
      ],
      "max": [
        203
      ]
    }
  ],
  "bufferViews": [
    {
      "buffer": 0,
      "byteLength": 12456,
      "byteOffset": 0,
      "target": 34962
    },
    {
      "buffer": 0,
      "byteLength": 12456,
      "byteOffset": 12456,
      "target": 34962
    },
    {
      "buffer": 0,
      "byteLength": 8304,
      "byteOffset": 24912,
      "target": 34962
    },
    {
      "buffer": 0,
      "byteLength": 7440,
      "byteOffset": 33216,
      "target": 34963
    },
    {
      "buffer": 0,
      "byteLength": 2448,
      "byteOffset": 40656,
      "target": 34962
    },
    {
      "buffer": 0,
      "byteLength": 2448,
      "byteOffset": 43104,
      "target": 34962
    },
    {
      "buffer": 0,
      "byteLength": 1632,
      "byteOffset": 45552,
      "target": 34962
    },
    {
      "buffer": 0,
      "byteLength": 1536,
      "byteOffset": 47184,
      "target": 34963
    },
    {
      "buffer": 0,
      "byteLength": 33456,
      "byteOffset": 48720,
      "target": 34962
    },
    {
      "buffer": 0,
      "byteLength": 33456,
      "byteOffset": 82176,
      "target": 34962
    },
    {
      "buffer": 0,
      "byteLength": 22304,
      "byteOffset": 115632,
      "target": 34962
    },
    {
      "buffer": 0,
      "byteLength": 21432,
      "byteOffset": 137936,
      "target": 34963
    },
    {
      "buffer": 0,
      "byteLength": 7344,
      "byteOffset": 159368,
      "target": 34962
    },
    {
      "buffer": 0,
      "byteLength": 7344,
      "byteOffset": 166712,
      "target": 34962
    },
    {
      "buffer": 0,
      "byteLength": 4896,
      "byteOffset": 174056,
      "target": 34962
    },
    {
      "buffer": 0,
      "byteLength": 4608,
      "byteOffset": 178952,
      "target": 34963
    },
    {
      "buffer": 0,
      "byteLength": 26760,
      "byteOffset": 183560,
      "target": 34962
    },
    {
      "buffer": 0,
      "byteLength": 26760,
      "byteOffset": 210320,
      "target": 34962
    },
    {
      "buffer": 0,
      "byteLength": 17840,
      "byteOffset": 237080,
      "target": 34962
    },
    {
      "buffer": 0,
      "byteLength": 18168,
      "byteOffset": 254920,
      "target": 34963
    },
    {
      "buffer": 0,
      "byteLength": 4896,
      "byteOffset": 273088,
      "target": 34962
    },
    {
      "buffer": 0,
      "byteLength": 4896,
      "byteOffset": 277984,
      "target": 34962
    },
    {
      "buffer": 0,
      "byteLength": 3264,
      "byteOffset": 282880,
      "target": 34962
    },
    {
      "buffer": 0,
      "byteLength": 3072,
      "byteOffset": 286144,
      "target": 34963
    },
    {
      "buffer": 0,
      "byteLength": 23376,
      "byteOffset": 289216,
      "target": 34962
    },
    {
      "buffer": 0,
      "byteLength": 23376,
      "byteOffset": 312592,
      "target": 34962
    },
    {
      "buffer": 0,
      "byteLength": 15584,
      "byteOffset": 335968,
      "target": 34962
    },
    {
      "buffer": 0,
      "byteLength": 14448,
      "byteOffset": 351552,
      "target": 34963
    },
    {
      "buffer": 0,
      "byteLength": 4896,
      "byteOffset": 366000,
      "target": 34962
    },
    {
      "buffer": 0,
      "byteLength": 4896,
      "byteOffset": 370896,
      "target": 34962
    },
    {
      "buffer": 0,
      "byteLength": 3264,
      "byteOffset": 375792,
      "target": 34962
    },
    {
      "buffer": 0,
      "byteLength": 6384,
      "byteOffset": 379056,
      "target": 34962
    },
    {
      "buffer": 0,
      "byteLength": 6384,
      "byteOffset": 385440,
      "target": 34962
    },
    {
      "buffer": 0,
      "byteLength": 4256,
      "byteOffset": 391824,
      "target": 34962
    },
    {
      "buffer": 0,
      "byteLength": 3744,
      "byteOffset": 396080,
      "target": 34963
    },
    {
      "buffer": 0,
      "byteLength": 1800,
      "byteOffset": 399824,
      "target": 34962
    },
    {
      "buffer": 0,
      "byteLength": 1800,
      "byteOffset": 401624,
      "target": 34962
    },
    {
      "buffer": 0,
      "byteLength": 1200,
      "byteOffset": 403424,
      "target": 34962
    },
    {
      "buffer": 0,
      "byteLength": 1008,
      "byteOffset": 404624,
      "target": 34963
    },
    {
      "buffer": 0,
      "byteLength": 21888,
      "byteOffset": 405632,
      "target": 34962
    },
    {
      "buffer": 0,
      "byteLength": 21888,
      "byteOffset": 427520,
      "target": 34962
    },
    {
      "buffer": 0,
      "byteLength": 14592,
      "byteOffset": 449408,
      "target": 34962
    },
    {
      "buffer": 0,
      "byteLength": 14520,
      "byteOffset": 464000,
      "target": 34963
    },
    {
      "buffer": 0,
      "byteLength": 2448,
      "byteOffset": 478520,
      "target": 34962
    },
    {
      "buffer": 0,
      "byteLength": 2448,
      "byteOffset": 480968,
      "target": 34962
    },
    {
      "buffer": 0,
      "byteLength": 1632,
      "byteOffset": 483416,
      "target": 34962
    },
    {
      "buffer": 0,
      "byteLength": 18504,
      "byteOffset": 485048,
      "target": 34962
    },
    {
      "buffer": 0,
      "byteLength": 18504,
      "byteOffset": 503552,
      "target": 34962
    },
    {
      "buffer": 0,
      "byteLength": 12336,
      "byteOffset": 522056,
      "target": 34962
    },
    {
      "buffer": 0,
      "byteLength": 10800,
      "byteOffset": 534392,
      "target": 34963
    },
    {
      "buffer": 0,
      "byteLength": 2448,
      "byteOffset": 545192,
      "target": 34962
    },
    {
      "buffer": 0,
      "byteLength": 2448,
      "byteOffset": 547640,
      "target": 34962
    },
    {
      "buffer": 0,
      "byteLength": 1632,
      "byteOffset": 550088,
      "target": 34962
    },
    {
      "buffer": 1,
      "byteOffset": 0,
      "byteLength": 14880,
      "target": 34963
    },
    {
      "buffer": 1,
      "byteOffset": 14880,
      "byteLength": 3072,
      "target": 34963
    },
    {
      "buffer": 1,
      "byteOffset": 17952,
      "byteLength": 42864,
      "target": 34963
    },
    {
      "buffer": 1,
      "byteOffset": 60816,
      "byteLength": 9216,
      "target": 34963
    },
    {
      "buffer": 1,
      "byteOffset": 70032,
      "byteLength": 36336,
      "target": 34963
    },
    {
      "buffer": 1,
      "byteOffset": 106368,
      "byteLength": 6144,
      "target": 34963
    },
    {
      "buffer": 1,
      "byteOffset": 112512,
      "byteLength": 28896,
      "target": 34963
    },
    {
      "buffer": 1,
      "byteOffset": 141408,
      "byteLength": 6144,
      "target": 34963
    },
    {
      "buffer": 1,
      "byteOffset": 147552,
      "byteLength": 7488,
      "target": 34963
    },
    {
      "buffer": 1,
      "byteOffset": 155040,
      "byteLength": 2016,
      "target": 34963
    },
    {
      "buffer": 1,
      "byteOffset": 157056,
      "byteLength": 29040,
      "target": 34963
    },
    {
      "buffer": 1,
      "byteOffset": 186096,
      "byteLength": 3072,
      "target": 34963
    },
    {
      "buffer": 1,
      "byteOffset": 189168,
      "byteLength": 21600,
      "target": 34963
    },
    {
      "buffer": 1,
      "byteOffset": 210768,
      "byteLength": 3072,
      "target": 34963
    }
  ],
  "buffers": [
    {
      "byteLength": 551720,
      "uri": "mounted_fluorescent_lights.bin"
    },
    {
      "uri": "parts.bin",
      "byteLength": 213840
    }
  ]
}
