{
  "asset": {
    "generator": "Khronos glTF Blender I/O v3.6.27",
    "version": "2.0"
  },
  "extensionsUsed": [
    "KHR_materials_specular",
    "KHR_materials_ior"
  ],
  "scene": 0,
  "scenes": [
    {
      "name": "Scene",
      "nodes": [
        0,
        1
      ]
    }
  ],
  "nodes": [
    {
      "mesh": 0,
      "name": "rollershutter_door"
    },
    {
      "mesh": 1,
      "name": "rollershutter_door_graffiti",
      "translation": [
        2,
        0,
        0
      ]
    }
  ],
  "materials": [
    {
      "name": "part_184_184_184",
      "pbrMetallicRoughness": {
        "baseColorFactor": [
          0.4793201831008268,
          0.4793201831008268,
          0.4793201831008268,
          1
        ],
        "metallicFactor": 0,
        "roughnessFactor": 1
      }
    }
  ],
  "meshes": [
    {
      "name": "Plane.010",
      "primitives": [
        {
          "attributes": {
            "POSITION": 0,
            "NORMAL": 1,
            "TEXCOORD_0": 2
          },
          "indices": 7,
          "material": 0
        }
      ]
    },
    {
      "name": "Plane.002",
      "primitives": [
        {
          "attributes": {
            "POSITION": 4,
            "NORMAL": 5,
            "TEXCOORD_0": 6
          },
          "indices": 8,
          "material": 0
        }
      ]
    }
  ],
  "accessors": [
    {
      "bufferView": 0,
      "componentType": 5126,
      "count": 670,
      "max": [
        0.5400000214576721,
        2.3999757766723633,
        0.29908570647239685
      ],
      "min": [
        -0.5400000214576721,
        2.2873277885082643e-06,
        -0.0010000001639127731
      ],
      "type": "VEC3"
    },
    {
      "bufferView": 1,
      "componentType": 5126,
      "count": 670,
      "type": "VEC3"
    },
    {
      "bufferView": 2,
      "componentType": 5126,
      "count": 670,
      "type": "VEC2"
    },
    {
      "bufferView": 3,
      "componentType": 5123,
      "count": 1656,
      "type": "SCALAR"
    },
    {
      "bufferView": 4,
      "componentType": 5126,
      "count": 670,
      "max": [
        0.5400000214576721,
        2.3999757766723633,
        0.29908570647239685
      ],
      "min": [
        -0.5400000214576721,
        2.2873277885082643e-06,
        -0.0010000001639127731
      ],
      "type": "VEC3"
    },
    {
      "bufferView": 5,
      "componentType": 5126,
      "count": 670,
      "type": "VEC3"
    },
    {
      "bufferView": 6,
      "componentType": 5126,
      "count": 670,
      "type": "VEC2"
    },
    {
      "bufferView": 7,
      "componentType": 5125,
      "count": 1656,
      "type": "SCALAR",
      "min": [
        0
      ],
      "max": [
        669
      ]
    },
    {
      "bufferView": 8,
      "componentType": 5125,
      "count": 1656,
      "type": "SCALAR",
      "min": [
        0
      ],
      "max": [
        669
      ]
    }
  ],
  "bufferViews": [
    {
      "buffer": 0,
      "byteLength": 8040,
      "byteOffset": 0,
      "target": 34962
    },
    {
      "buffer": 0,
      "byteLength": 8040,
      "byteOffset": 8040,
      "target": 34962
    },
    {
      "buffer": 0,
      "byteLength": 5360,
      "byteOffset": 16080,
      "target": 34962
    },
    {
      "buffer": 0,
      "byteLength": 3312,
      "byteOffset": 21440,
      "target": 34963
    },
    {
      "buffer": 0,
      "byteLength": 8040,
      "byteOffset": 24752,
      "target": 34962
    },
    {
      "buffer": 0,
      "byteLength": 8040,
      "byteOffset": 32792,
      "target": 34962
    },
    {
      "buffer": 0,
      "byteLength": 5360,
      "byteOffset": 40832,
      "target": 34962
    },
    {
      "buffer": 1,
      "byteOffset": 0,
      "byteLength": 6624,
      "target": 34963
    },
    {
      "buffer": 1,
      "byteOffset": 6624,
      "byteLength": 6624,
      "target": 34963
    }
  ],
  "buffers": [
    {
      "byteLength": 46192,
      "uri": "rollershutter_door.bin"
    },
    {
      "uri": "parts.bin",
      "byteLength": 13248
    }
  ]
}
