{
  "asset": {
    "generator": "Khronos glTF Blender I/O v3.6.27",
    "version": "2.0"
  },
  "scene": 0,
  "scenes": [
    {
      "name": "Scene",
      "nodes": [
        0,
        1,
        2,
        3,
        4,
        5,
        6,
        7
      ]
    }
  ],
  "nodes": [
    {
      "mesh": 0,
      "name": "modular_industrial_pipes_01_pipe01",
      "translation": [
        0.3999999761581421,
        -0.5249999761581421,
        -0.025000035762786865
      ]
    },
    {
      "mesh": 1,
      "name": "modular_industrial_pipes_01_pipe02",
      "translation": [
        -0.5999999642372131,
        -0.02499999850988388,
        -0.02500000037252903
      ]
    },
    {
      "mesh": 2,
      "name": "modular_industrial_pipes_01_pipe03",
      "translation": [
        -0.20000000298023224,
        -0.32500001788139343,
        -0.025000005960464478
      ]
    },
    {
      "mesh": 3,
      "name": "modular_industrial_pipes_01_pipe05",
      "translation": [
        0.3999999761581421,
        0.675000011920929,
        -0.02499997615814209
      ]
    },
    {
      "mesh": 4,
      "name": "modular_industrial_pipes_01_pipe06",
      "translation": [
        0.3999999761581421,
        0.17500001192092896,
        -0.024999991059303284
      ]
    },
    {
      "mesh": 5,
      "name": "modular_industrial_pipes_01_pipe07",
      "translation": [
        0,
        0.07500000298023224,
        -0.02499999850988388
      ]
    },
    {
      "mesh": 6,
      "name": "modular_industrial_pipes_01_pipe08",
      "translation": [
        -0.2999999523162842,
        -0.7250000238418579,
        -0.025000035762786865
      ]
    },
    {
      "mesh": 7,
      "name": "modular_industrial_pipes_01_pipe04",
      "translation": [
        -0.09999998658895493,
        0.6750000715255737,
        -0.02499997615814209
      ]
    }
  ],
  "materials": [
    {
      "name": "part_97_86_76",
      "pbrMetallicRoughness": {
        "baseColorFactor": [
          0.11953842798834562,
          0.09305896284668745,
          0.07227185068231748,
          1
        ],
        "metallicFactor": 0,
        "roughnessFactor": 1
      }
    },
    {
      "name": "part_97_92_76",
      "pbrMetallicRoughness": {
        "baseColorFactor": [
          0.11953842798834562,
          0.10702310297826761,
          0.07227185068231748,
          1
        ],
        "metallicFactor": 0,
        "roughnessFactor": 1
      }
    },
    {
      "name": "part_97_97_97",
      "pbrMetallicRoughness": {
        "baseColorFactor": [
          0.11953842798834562,
          0.11953842798834562,
          0.11953842798834562,
          1
        ],
        "metallicFactor": 0,
        "roughnessFactor": 1
      }
    },
    {
      "name": "part_61_54_32",
      "pbrMetallicRoughness": {
        "baseColorFactor": [
          0.046665086336880095,
          0.03688945040110004,
          0.014443843596092545,
          1
        ],
        "metallicFactor": 0,
        "roughnessFactor": 1
      }
    },
    {
      "name": "part_97_35_35",
      "pbrMetallicRoughness": {
        "baseColorFactor": [
          0.11953842798834562,
          0.016807375752887384,
          0.016807375752887384,
          1
        ],
        "metallicFactor": 0,
        "roughnessFactor": 1
      }
    },
    {
      "name": "part_61_47_32",
      "pbrMetallicRoughness": {
        "baseColorFactor": [
          0.046665086336880095,
          0.028426039504420793,
          0.014443843596092545,
          1
        ],
        "metallicFactor": 0,
        "roughnessFactor": 1
      }
    },
    {
      "name": "part_61_54_48",
      "pbrMetallicRoughness": {
        "baseColorFactor": [
          0.046665086336880095,
          0.03688945040110004,
          0.0295568344378088,
          1
        ],
        "metallicFactor": 0,
        "roughnessFactor": 1
      }
    }
  ],
  "meshes": [
    {
      "name": "Mesh",
      "primitives": [
        {
          "attributes": {
            "POSITION": 0,
            "NORMAL": 1,
            "TEXCOORD_0": 2
          },
          "indices": 32,
          "material": 0
        },
        {
          "attributes": {
            "POSITION": 0,
            "NORMAL": 1,
            "TEXCOORD_0": 2
          },
          "indices": 33,
          "material": 1
        }
      ]
    },
    {
      "name": "Mesh.001",
      "primitives": [
        {
          "attributes": {
            "POSITION": 4,
            "NORMAL": 5,
            "TEXCOORD_0": 6
          },
          "indices": 34,
          "material": 0
        },
        {
          "attributes": {
            "POSITION": 4,
            "NORMAL": 5,
            "TEXCOORD_0": 6
          },
          "indices": 35,
          "material": 1
        }
      ]
    },
    {
      "name": "Mesh.002",
      "primitives": [
        {
          "attributes": {
            "POSITION": 8,
            "NORMAL": 9,
            "TEXCOORD_0": 10
          },
          "indices": 36,
          "material": 2
        },
        {
          "attributes": {
            "POSITION": 8,
            "NORMAL": 9,
            "TEXCOORD_0": 10
          },
          "indices": 37,
          "material": 1
        }
      ]
    },
    {
      "name": "Mesh.004",
      "primitives": [
        {
          "attributes": {
            "POSITION": 12,
            "NORMAL": 13,
            "TEXCOORD_0": 14
          },
          "indices": 38,
          "material": 0
        },
        {
          "attributes": {
            "POSITION": 12,
            "NORMAL": 13,
            "TEXCOORD_0": 14
          },
          "indices": 39,
          "material": 3
        }
      ]
    },
    {
      "name": "Mesh.005",
      "primitives": [
        {
          "attributes": {
            "POSITION": 16,
            "NORMAL": 17,
            "TEXCOORD_0": 18
          },
          "indices": 40,
          "material": 1
        },
        {
          "attributes": {
            "POSITION": 16,
            "NORMAL": 17,
            "TEXCOORD_0": 18
          },
          "indices": 41,
          "material": 3
        }
      ]
    },
    {
      "name": "Mesh.006",
      "primitives": [
        {
          "attributes": {
            "POSITION": 20,
            "NORMAL": 21,
            "TEXCOORD_0": 22
          },
          "indices": 42,
          "material": 1
        }
      ]
    },
    {
      "name": "Mesh.007",
      "primitives": [
        {
          "attributes": {
            "POSITION": 24,
            "NORMAL": 25,
            "TEXCOORD_0": 26
          },
          "indices": 43,
          "material": 0
        },
        {
          "attributes": {
            "POSITION": 24,
            "NORMAL": 25,
            "TEXCOORD_0": 26
          },
          "indices": 44,
          "material": 4
        },
        {
          "attributes": {
            "POSITION": 24,
            "NORMAL": 25,
            "TEXCOORD_0": 26
          },
          "indices": 45,
          "material": 5
        },
        {
          "attributes": {
            "POSITION": 24,
            "NORMAL": 25,
            "TEXCOORD_0": 26
          },
          "indices": 46,
          "material": 6
        }
      ]
    },
    {
      "name": "Mesh.011",
      "primitives": [
        {
          "attributes": {
            "POSITION": 28,
            "NORMAL": 29,
            "TEXCOORD_0": 30
          },
          "indices": 47,
          "material": 0
        },
        {
          "attributes": {
            "POSITION": 28,
            "NORMAL": 29,
            "TEXCOORD_0": 30
          },
          "indices": 48,
          "material": 1
        }
      ]
    }
  ],
  "accessors": [
    {
      "bufferView": 0,
      "componentType": 5126,
      "count": 810,
      "max": [
        0.10355377197265625,
        0.42953094840049744,
        0.1031607836484909
      ],
      "min": [
        -0.10355384647846222,
        -0.42953094840049744,
        -0.10316061228513718
      ],
      "type": "VEC3"
    },
    {
      "bufferView": 1,
      "componentType": 5126,
      "count": 810,
      "type": "VEC3"
    },
    {
      "bufferView": 2,
      "componentType": 5126,
      "count": 810,
      "type": "VEC2"
    },
    {
      "bufferView": 3,
      "componentType": 5123,
      "count": 1800,
      "type": "SCALAR"
    },
    {
      "bufferView": 4,
      "componentType": 5126,
      "count": 850,
      "max": [
        0.10355186462402344,
        0.9773200154304504,
        0.10316036641597748
      ],
      "min": [
        -0.10355205088853836,
        -0.977319598197937,
        -0.10316061973571777
      ],
      "type": "VEC3"
    },
    {
      "bufferView": 5,
      "componentType": 5126,
      "count": 850,
      "type": "VEC3"
    },
    {
      "bufferView": 6,
      "componentType": 5126,
      "count": 850,
      "type": "VEC2"
    },
    {
      "bufferView": 7,
      "componentType": 5123,
      "count": 1944,
      "type": "SCALAR"
    },
    {
      "bufferView": 8,
      "componentType": 5126,
      "count": 1046,
      "max": [
        0.2912115454673767,
        0.6440821886062622,
        0.10352516174316406
      ],
      "min": [
        -0.30743715167045593,
        -0.6703025698661804,
        -0.10285165905952454
      ],
      "type": "VEC3"
    },
    {
      "bufferView": 9,
      "componentType": 5126,
      "count": 1046,
      "type": "VEC3"
    },
    {
      "bufferView": 10,
      "componentType": 5126,
      "count": 1046,
      "type": "VEC2"
    },
    {
      "bufferView": 11,
      "componentType": 5123,
      "count": 2952,
      "type": "SCALAR"
    },
    {
      "bufferView": 12,
      "componentType": 5126,
      "count": 1044,
      "max": [
        0.2992496192455292,
        0.21644553542137146,
        0.10318444669246674
      ],
      "min": [
        -0.29883816838264465,
        -0.2164207547903061,
        -0.1031605452299118
      ],
      "type": "VEC3"
    },
    {
      "bufferView": 13,
      "componentType": 5126,
      "count": 1044,
      "type": "VEC3"
    },
    {
      "bufferView": 14,
      "componentType": 5126,
      "count": 1044,
      "type": "VEC2"
    },
    {
      "bufferView": 15,
      "componentType": 5123,
      "count": 2952,
      "type": "SCALAR"
    },
    {
      "bufferView": 16,
      "componentType": 5126,
      "count": 1328,
      "max": [
        0.20517486333847046,
        0.17866015434265137,
        0.10321727395057678
      ],
      "min": [
        -0.1035558208823204,
        -0.17889827489852905,
        -0.10316428542137146
      ],
      "type": "VEC3"
    },
    {
      "bufferView": 17,
      "componentType": 5126,
      "count": 1328,
      "type": "VEC3"
    },
    {
      "bufferView": 18,
      "componentType": 5126,
      "count": 1328,
      "type": "VEC2"
    },
    {
      "bufferView": 19,
      "componentType": 5123,
      "count": 3264,
      "type": "SCALAR"
    },
    {
      "bufferView": 20,
      "componentType": 5126,
      "count": 1746,
      "max": [
        0.17839862406253815,
        0.20516109466552734,
        0.10322123765945435
      ],
      "min": [
        -0.17840716242790222,
        -0.20591944456100464,
        -0.10316047072410583
      ],
      "type": "VEC3"
    },
    {
      "bufferView": 21,
      "componentType": 5126,
      "count": 1746,
      "type": "VEC3"
    },
    {
      "bufferView": 22,
      "componentType": 5126,
      "count": 1746,
      "type": "VEC2"
    },
    {
      "bufferView": 23,
      "componentType": 5123,
      "count": 4224,
      "type": "SCALAR"
    },
    {
      "bufferView": 24,
      "componentType": 5126,
      "count": 6009,
      "max": [
        0.1627417653799057,
        0.19008544087409973,
        0.20443136990070343
      ],
      "min": [
        -0.10355323553085327,
        -0.18874342739582062,
        -0.10316090285778046
      ],
      "type": "VEC3"
    },
    {
      "bufferView": 25,
      "componentType": 5126,
      "count": 6009,
      "type": "VEC3"
    },
    {
      "bufferView": 26,
      "componentType": 5126,
      "count": 6009,
      "type": "VEC2"
    },
    {
      "bufferView": 27,
      "componentType": 5123,
      "count": 17364,
      "type": "SCALAR"
    },
    {
      "bufferView": 28,
      "componentType": 5126,
      "count": 952,
      "max": [
        0.12742145359516144,
        0.25419169664382935,
        0.1031605526804924
      ],
      "min": [
        -0.29672783613204956,
        -0.19040973484516144,
        -0.10316021740436554
      ],
      "type": "VEC3"
    },
    {
      "bufferView": 29,
      "componentType": 5126,
      "count": 952,
      "type": "VEC3"
    },
    {
      "bufferView": 30,
      "componentType": 5126,
      "count": 952,
      "type": "VEC2"
    },
    {
      "bufferView": 31,
      "componentType": 5123,
      "count": 2520,
      "type": "SCALAR"
    },
    {
      "bufferView": 32,
      "componentType": 5125,
      "count": 936,
      "type": "SCALAR",
      "min": [
        0
      ],
      "max": [
        313
      ]
    },
    {
      "bufferView": 33,
      "componentType": 5125,
      "count": 864,
      "type": "SCALAR",
      "min": [
        314
      ],
      "max": [
        809
      ]
    },
    {
      "bufferView": 34,
      "componentType": 5125,
      "count": 1080,
      "type": "SCALAR",
      "min": [
        0
      ],
      "max": [
        353
      ]
    },
    {
      "bufferView": 35,
      "componentType": 5125,
      "count": 864,
      "type": "SCALAR",
      "min": [
        354
      ],
      "max": [
        849
      ]
    },
    {
      "bufferView": 36,
      "componentType": 5125,
      "count": 2088,
      "type": "SCALAR",
      "min": [
        0
      ],
      "max": [
        549
      ]
    },
    {
      "bufferView": 37,
      "componentType": 5125,
      "count": 864,
      "type": "SCALAR",
      "min": [
        550
      ],
      "max": [
        1045
      ]
    },
    {
      "bufferView": 38,
      "componentType": 5125,
      "count": 2088,
      "type": "SCALAR",
      "min": [
        0
      ],
      "max": [
        547
      ]
    },
    {
      "bufferView": 39,
      "componentType": 5125,
      "count": 864,
      "type": "SCALAR",
      "min": [
        548
      ],
      "max": [
        1043
      ]
    },
    {
      "bufferView": 40,
      "componentType": 5125,
      "count": 1968,
      "type": "SCALAR",
      "min": [
        0
      ],
      "max": [
        583
      ]
    },
    {
      "bufferView": 41,
      "componentType": 5125,
      "count": 1296,
      "type": "SCALAR",
      "min": [
        584
      ],
      "max": [
        1327
      ]
    },
    {
      "bufferView": 42,
      "componentType": 5125,
      "count": 4224,
      "type": "SCALAR",
      "min": [
        0
      ],
      "max": [
        1745
      ]
    },
    {
      "bufferView": 43,
      "componentType": 5125,
      "count": 2730,
      "type": "SCALAR",
      "min": [
        0
      ],
      "max": [
        5001
      ]
    },
    {
      "bufferView": 44,
      "componentType": 5125,
      "count": 6162,
      "type": "SCALAR",
      "min": [
        498
      ],
      "max": [
        5512
      ]
    },
    {
      "bufferView": 45,
      "componentType": 5125,
      "count": 1296,
      "type": "SCALAR",
      "min": [
        2096
      ],
      "max": [
        6008
      ]
    },
    {
      "bufferView": 46,
      "componentType": 5125,
      "count": 7176,
      "type": "SCALAR",
      "min": [
        2172
      ],
      "max": [
        4673
      ]
    },
    {
      "bufferView": 47,
      "componentType": 5125,
      "count": 1656,
      "type": "SCALAR",
      "min": [
        0
      ],
      "max": [
        455
      ]
    },
    {
      "bufferView": 48,
      "componentType": 5125,
      "count": 864,
      "type": "SCALAR",
      "min": [
        456
      ],
      "max": [
        951
      ]
    }
  ],
  "bufferViews": [
    {
      "buffer": 0,
      "byteLength": 9720,
      "byteOffset": 0,
      "target": 34962
    },
    {
      "buffer": 0,
      "byteLength": 9720,
      "byteOffset": 9720,
      "target": 34962
    },
    {
      "buffer": 0,
      "byteLength": 6480,
      "byteOffset": 19440,
      "target": 34962
    },
    {
      "buffer": 0,
      "byteLength": 3600,
      "byteOffset": 25920,
      "target": 34963
    },
    {
      "buffer": 0,
      "byteLength": 10200,
      "byteOffset": 29520,
      "target": 34962
    },
    {
      "buffer": 0,
      "byteLength": 10200,
      "byteOffset": 39720,
      "target": 34962
    },
    {
      "buffer": 0,
      "byteLength": 6800,
      "byteOffset": 49920,
      "target": 34962
    },
    {
      "buffer": 0,
      "byteLength": 3888,
      "byteOffset": 56720,
      "target": 34963
    },
    {
      "buffer": 0,
      "byteLength": 12552,
      "byteOffset": 60608,
      "target": 34962
    },
    {
      "buffer": 0,
      "byteLength": 12552,
      "byteOffset": 73160,
      "target": 34962
    },
    {
      "buffer": 0,
      "byteLength": 8368,
      "byteOffset": 85712,
      "target": 34962
    },
    {
      "buffer": 0,
      "byteLength": 5904,
      "byteOffset": 94080,
      "target": 34963
    },
    {
      "buffer": 0,
      "byteLength": 12528,
      "byteOffset": 99984,
      "target": 34962
    },
    {
      "buffer": 0,
      "byteLength": 12528,
      "byteOffset": 112512,
      "target": 34962
    },
    {
      "buffer": 0,
      "byteLength": 8352,
      "byteOffset": 125040,
      "target": 34962
    },
    {
      "buffer": 0,
      "byteLength": 5904,
      "byteOffset": 133392,
      "target": 34963
    },
    {
      "buffer": 0,
      "byteLength": 15936,
      "byteOffset": 139296,
      "target": 34962
    },
    {
      "buffer": 0,
      "byteLength": 15936,
      "byteOffset": 155232,
      "target": 34962
    },
    {
      "buffer": 0,
      "byteLength": 10624,
      "byteOffset": 171168,
      "target": 34962
    },
    {
      "buffer": 0,
      "byteLength": 6528,
      "byteOffset": 181792,
      "target": 34963
    },
    {
      "buffer": 0,
      "byteLength": 20952,
      "byteOffset": 188320,
      "target": 34962
    },
    {
      "buffer": 0,
      "byteLength": 20952,
      "byteOffset": 209272,
      "target": 34962
    },
    {
      "buffer": 0,
      "byteLength": 13968,
      "byteOffset": 230224,
      "target": 34962
    },
    {
      "buffer": 0,
      "byteLength": 8448,
      "byteOffset": 244192,
      "target": 34963
    },
    {
      "buffer": 0,
      "byteLength": 72108,
      "byteOffset": 252640,
      "target": 34962
    },
    {
      "buffer": 0,
      "byteLength": 72108,
      "byteOffset": 324748,
      "target": 34962
    },
    {
      "buffer": 0,
      "byteLength": 48072,
      "byteOffset": 396856,
      "target": 34962
    },
    {
      "buffer": 0,
      "byteLength": 34728,
      "byteOffset": 444928,
      "target": 34963
    },
    {
      "buffer": 0,
      "byteLength": 11424,
      "byteOffset": 479656,
      "target": 34962
    },
    {
      "buffer": 0,
      "byteLength": 11424,
      "byteOffset": 491080,
      "target": 34962
    },
    {
      "buffer": 0,
      "byteLength": 7616,
      "byteOffset": 502504,
      "target": 34962
    },
    {
      "buffer": 0,
      "byteLength": 5040,
      "byteOffset": 510120,
      "target": 34963
    },
    {
      "buffer": 1,
      "byteOffset": 0,
      "byteLength": 3744,
      "target": 34963
    },
    {
      "buffer": 1,
      "byteOffset": 3744,
      "byteLength": 3456,
      "target": 34963
    },
    {
      "buffer": 1,
      "byteOffset": 7200,
      "byteLength": 4320,
      "target": 34963
    },
    {
      "buffer": 1,
      "byteOffset": 11520,
      "byteLength": 3456,
      "target": 34963
    },
    {
      "buffer": 1,
      "byteOffset": 14976,
      "byteLength": 8352,
      "target": 34963
    },
    {
      "buffer": 1,
      "byteOffset": 23328,
      "byteLength": 3456,
      "target": 34963
    },
    {
      "buffer": 1,
      "byteOffset": 26784,
      "byteLength": 8352,
      "target": 34963
    },
    {
      "buffer": 1,
      "byteOffset": 35136,
      "byteLength": 3456,
      "target": 34963
    },
    {
      "buffer": 1,
      "byteOffset": 38592,
      "byteLength": 7872,
      "target": 34963
    },
    {
      "buffer": 1,
      "byteOffset": 46464,
      "byteLength": 5184,
      "target": 34963
    },
    {
      "buffer": 1,
      "byteOffset": 51648,
      "byteLength": 16896,
      "target": 34963
    },
    {
      "buffer": 1,
      "byteOffset": 68544,
      "byteLength": 10920,
      "target": 34963
    },
    {
      "buffer": 1,
      "byteOffset": 79464,
      "byteLength": 24648,
      "target": 34963
    },
    {
      "buffer": 1,
      "byteOffset": 104112,
      "byteLength": 5184,
      "target": 34963
    },
    {
      "buffer": 1,
      "byteOffset": 109296,
      "byteLength": 28704,
      "target": 34963
    },
    {
      "buffer": 1,
      "byteOffset": 138000,
      "byteLength": 6624,
      "target": 34963
    },
    {
      "buffer": 1,
      "byteOffset": 144624,
      "byteLength": 3456,
      "target": 34963
    }
  ],
  "buffers": [
    {
      "byteLength": 515160,
      "uri": "modular_industrial_pipes_01.bin"
    },
    {
      "uri": "parts.bin",
      "byteLength": 148080
    }
  ]
}
