{
  "asset": {
    "generator": "Khronos glTF Blender I/O v5.1.20",
    "version": "2.0"
  },
  "extensionsUsed": [
    "KHR_materials_transmission",
    "KHR_materials_specular"
  ],
  "scene": 0,
  "scenes": [
    {
      "name": "Scene",
      "nodes": [
        0,
        1,
        2,
        3
      ]
    }
  ],
  "nodes": [
    {
      "mesh": 0,
      "name": "portable_generator"
    },
    {
      "mesh": 1,
      "name": "portable_generator_dial",
      "rotation": [
        -0.10301912575960159,
        0,
        0,
        0.9946793913841248
      ],
      "translation": [
        0.09225182980298996,
        0.41630613803863525,
        0.2403021901845932
      ]
    },
    {
      "mesh": 2,
      "name": "portable_generator_switch",
      "translation": [
        -0.260182648897171,
        0.4379270672798157,
        0.23846513032913208
      ]
    },
    {
      "mesh": 3,
      "name": "portable_generator_toggle",
      "rotation": [
        -0.10301912575960159,
        0,
        0,
        0.9946793913841248
      ],
      "translation": [
        0.01236033532768488,
        0.4290839433670044,
        0.23424559831619263
      ]
    }
  ],
  "materials": [
    {
      "name": "portable_generator_paint",
      "pbrMetallicRoughness": {
        "baseColorFactor": [
          0.4793201831008268,
          0.32314320911295075,
          0.06301001765316767,
          1
        ],
        "metallicFactor": 0,
        "roughnessFactor": 1
      }
    },
    {
      "name": "portable_generator_dark",
      "pbrMetallicRoughness": {
        "baseColorFactor": [
          0.052860647023180246,
          0.05612849004960009,
          0.04817182422688942,
          1
        ],
        "metallicFactor": 0,
        "roughnessFactor": 1
      }
    },
    {
      "name": "portable_generator_metal",
      "pbrMetallicRoughness": {
        "baseColorFactor": [
          0.3712376804741491,
          0.3762621229909065,
          0.31854677812509186,
          1
        ],
        "metallicFactor": 0,
        "roughnessFactor": 1
      }
    },
    {
      "name": "portable_generator_control",
      "pbrMetallicRoughness": {
        "baseColorFactor": [
          0.3049873140698863,
          0.0953074666309647,
          0.06662593864377289,
          1
        ],
        "metallicFactor": 0,
        "roughnessFactor": 1
      }
    }
  ],
  "meshes": [
    {
      "name": "Cube.023",
      "primitives": [
        {
          "attributes": {
            "POSITION": 0,
            "NORMAL": 1,
            "TEXCOORD_0": 2
          },
          "indices": 20,
          "material": 1
        },
        {
          "attributes": {
            "POSITION": 0,
            "NORMAL": 1,
            "TEXCOORD_0": 2
          },
          "indices": 21,
          "material": 2
        },
        {
          "attributes": {
            "POSITION": 0,
            "NORMAL": 1,
            "TEXCOORD_0": 2
          },
          "indices": 22,
          "material": 0
        },
        {
          "attributes": {
            "POSITION": 4,
            "NORMAL": 5,
            "TEXCOORD_0": 6
          },
          "indices": 23,
          "material": 1
        }
      ]
    },
    {
      "name": "Cylinder.061",
      "primitives": [
        {
          "attributes": {
            "POSITION": 8,
            "NORMAL": 9,
            "TEXCOORD_0": 10
          },
          "indices": 24,
          "material": 1
        }
      ]
    },
    {
      "name": "Cube.050",
      "primitives": [
        {
          "attributes": {
            "POSITION": 12,
            "NORMAL": 13,
            "TEXCOORD_0": 14
          },
          "indices": 25,
          "material": 1
        }
      ]
    },
    {
      "name": "Cube.057",
      "primitives": [
        {
          "attributes": {
            "POSITION": 16,
            "NORMAL": 17,
            "TEXCOORD_0": 18
          },
          "indices": 26,
          "material": 1
        }
      ]
    }
  ],
  "accessors": [
    {
      "bufferView": 0,
      "componentType": 5126,
      "count": 24191,
      "max": [
        0.4038233458995819,
        0.5769813060760498,
        0.28200000524520874
      ],
      "min": [
        -0.41451746225357056,
        5.806691478937864e-05,
        -0.28200000524520874
      ],
      "type": "VEC3"
    },
    {
      "bufferView": 1,
      "componentType": 5126,
      "count": 24191,
      "type": "VEC3"
    },
    {
      "bufferView": 2,
      "componentType": 5126,
      "count": 24191,
      "type": "VEC2"
    },
    {
      "bufferView": 3,
      "componentType": 5123,
      "count": 78735,
      "type": "SCALAR"
    },
    {
      "bufferView": 4,
      "componentType": 5126,
      "count": 60,
      "max": [
        0.11874717473983765,
        0.45591384172439575,
        0.24558435380458832
      ],
      "min": [
        0.06575648486614227,
        0.4033919870853424,
        0.2296871691942215
      ],
      "type": "VEC3"
    },
    {
      "bufferView": 5,
      "componentType": 5126,
      "count": 60,
      "type": "VEC3"
    },
    {
      "bufferView": 6,
      "componentType": 5126,
      "count": 60,
      "type": "VEC2"
    },
    {
      "bufferView": 7,
      "componentType": 5123,
      "count": 162,
      "type": "SCALAR"
    },
    {
      "bufferView": 8,
      "componentType": 5126,
      "count": 43,
      "max": [
        0.007228550035506487,
        0.02711115963757038,
        0.0033472839277237654
      ],
      "min": [
        -0.0033062135335057974,
        -0.003314283210784197,
        -0.0019415192073211074
      ],
      "type": "VEC3"
    },
    {
      "bufferView": 9,
      "componentType": 5126,
      "count": 43,
      "type": "VEC3"
    },
    {
      "bufferView": 10,
      "componentType": 5126,
      "count": 43,
      "type": "VEC2"
    },
    {
      "bufferView": 11,
      "componentType": 5123,
      "count": 114,
      "type": "SCALAR"
    },
    {
      "bufferView": 12,
      "componentType": 5126,
      "count": 50,
      "max": [
        0.013297338038682938,
        0.010860837064683437,
        0.016947824507951736
      ],
      "min": [
        -0.013297284953296185,
        -0.009099133312702179,
        -0.021281467750668526
      ],
      "type": "VEC3"
    },
    {
      "bufferView": 13,
      "componentType": 5126,
      "count": 50,
      "type": "VEC3"
    },
    {
      "bufferView": 14,
      "componentType": 5126,
      "count": 50,
      "type": "VEC2"
    },
    {
      "bufferView": 15,
      "componentType": 5123,
      "count": 96,
      "type": "SCALAR"
    },
    {
      "bufferView": 16,
      "componentType": 5126,
      "count": 64,
      "max": [
        0.004067804664373398,
        0.003990439232438803,
        0.012876811437308788
      ],
      "min": [
        -0.004067804664373398,
        -0.003990439232438803,
        -0.0013534952886402607
      ],
      "type": "VEC3"
    },
    {
      "bufferView": 17,
      "componentType": 5126,
      "count": 64,
      "type": "VEC3"
    },
    {
      "bufferView": 18,
      "componentType": 5126,
      "count": 64,
      "type": "VEC2"
    },
    {
      "bufferView": 19,
      "componentType": 5123,
      "count": 150,
      "type": "SCALAR"
    },
    {
      "bufferView": 20,
      "componentType": 5125,
      "count": 66441,
      "type": "SCALAR",
      "min": [
        0
      ],
      "max": [
        24190
      ]
    },
    {
      "bufferView": 21,
      "componentType": 5125,
      "count": 1926,
      "type": "SCALAR",
      "min": [
        3308
      ],
      "max": [
        23720
      ]
    },
    {
      "bufferView": 22,
      "componentType": 5125,
      "count": 10368,
      "type": "SCALAR",
      "min": [
        4080
      ],
      "max": [
        23480
      ]
    },
    {
      "bufferView": 23,
      "componentType": 5125,
      "count": 162,
      "type": "SCALAR",
      "min": [
        0
      ],
      "max": [
        59
      ]
    },
    {
      "bufferView": 24,
      "componentType": 5125,
      "count": 114,
      "type": "SCALAR",
      "min": [
        0
      ],
      "max": [
        42
      ]
    },
    {
      "bufferView": 25,
      "componentType": 5125,
      "count": 96,
      "type": "SCALAR",
      "min": [
        0
      ],
      "max": [
        49
      ]
    },
    {
      "bufferView": 26,
      "componentType": 5125,
      "count": 150,
      "type": "SCALAR",
      "min": [
        0
      ],
      "max": [
        63
      ]
    }
  ],
  "bufferViews": [
    {
      "buffer": 0,
      "byteLength": 290292,
      "byteOffset": 0,
      "target": 34962
    },
    {
      "buffer": 0,
      "byteLength": 290292,
      "byteOffset": 290292,
      "target": 34962
    },
    {
      "buffer": 0,
      "byteLength": 193528,
      "byteOffset": 580584,
      "target": 34962
    },
    {
      "buffer": 0,
      "byteLength": 157470,
      "byteOffset": 774112,
      "target": 34963
    },
    {
      "buffer": 0,
      "byteLength": 720,
      "byteOffset": 931584,
      "target": 34962
    },
    {
      "buffer": 0,
      "byteLength": 720,
      "byteOffset": 932304,
      "target": 34962
    },
    {
      "buffer": 0,
      "byteLength": 480,
      "byteOffset": 933024,
      "target": 34962
    },
    {
      "buffer": 0,
      "byteLength": 324,
      "byteOffset": 933504,
      "target": 34963
    },
    {
      "buffer": 0,
      "byteLength": 516,
      "byteOffset": 933828,
      "target": 34962
    },
    {
      "buffer": 0,
      "byteLength": 516,
      "byteOffset": 934344,
      "target": 34962
    },
    {
      "buffer": 0,
      "byteLength": 344,
      "byteOffset": 934860,
      "target": 34962
    },
    {
      "buffer": 0,
      "byteLength": 228,
      "byteOffset": 935204,
      "target": 34963
    },
    {
      "buffer": 0,
      "byteLength": 600,
      "byteOffset": 935432,
      "target": 34962
    },
    {
      "buffer": 0,
      "byteLength": 600,
      "byteOffset": 936032,
      "target": 34962
    },
    {
      "buffer": 0,
      "byteLength": 400,
      "byteOffset": 936632,
      "target": 34962
    },
    {
      "buffer": 0,
      "byteLength": 192,
      "byteOffset": 937032,
      "target": 34963
    },
    {
      "buffer": 0,
      "byteLength": 768,
      "byteOffset": 937224,
      "target": 34962
    },
    {
      "buffer": 0,
      "byteLength": 768,
      "byteOffset": 937992,
      "target": 34962
    },
    {
      "buffer": 0,
      "byteLength": 512,
      "byteOffset": 938760,
      "target": 34962
    },
    {
      "buffer": 0,
      "byteLength": 300,
      "byteOffset": 939272,
      "target": 34963
    },
    {
      "buffer": 1,
      "byteOffset": 0,
      "byteLength": 265764,
      "target": 34963
    },
    {
      "buffer": 1,
      "byteOffset": 265764,
      "byteLength": 7704,
      "target": 34963
    },
    {
      "buffer": 1,
      "byteOffset": 273468,
      "byteLength": 41472,
      "target": 34963
    },
    {
      "buffer": 1,
      "byteOffset": 314940,
      "byteLength": 648,
      "target": 34963
    },
    {
      "buffer": 1,
      "byteOffset": 315588,
      "byteLength": 456,
      "target": 34963
    },
    {
      "buffer": 1,
      "byteOffset": 316044,
      "byteLength": 384,
      "target": 34963
    },
    {
      "buffer": 1,
      "byteOffset": 316428,
      "byteLength": 600,
      "target": 34963
    }
  ],
  "buffers": [
    {
      "byteLength": 939572,
      "uri": "portable_generator.bin"
    },
    {
      "uri": "parts.bin",
      "byteLength": 317028
    }
  ]
}
