{
  "asset": {
    "generator": "Khronos glTF Blender I/O v4.2.60",
    "version": "2.0"
  },
  "scene": 0,
  "scenes": [
    {
      "name": "Scene",
      "nodes": [
        0
      ]
    }
  ],
  "nodes": [
    {
      "mesh": 0,
      "name": "industrial_wall_sconce",
      "translation": [
        0.001505084685049951,
        0.1513962596654892,
        0.008094342425465584
      ]
    }
  ],
  "materials": [
    {
      "name": "part_143_127_111",
      "pbrMetallicRoughness": {
        "baseColorFactor": [
          0.27467731206038465,
          0.21223075741405523,
          0.1589608350608804,
          1
        ],
        "metallicFactor": 0,
        "roughnessFactor": 1
      }
    },
    {
      "name": "part_143_143_143",
      "pbrMetallicRoughness": {
        "baseColorFactor": [
          0.27467731206038465,
          0.27467731206038465,
          0.27467731206038465,
          1
        ],
        "metallicFactor": 0,
        "roughnessFactor": 1
      }
    },
    {
      "name": "part_97_97_97",
      "pbrMetallicRoughness": {
        "baseColorFactor": [
          0.11953842798834562,
          0.11953842798834562,
          0.11953842798834562,
          1
        ],
        "metallicFactor": 0,
        "roughnessFactor": 1
      }
    },
    {
      "name": "part_184_184_184",
      "pbrMetallicRoughness": {
        "baseColorFactor": [
          0.4793201831008268,
          0.4793201831008268,
          0.4793201831008268,
          1
        ],
        "metallicFactor": 0,
        "roughnessFactor": 1
      }
    }
  ],
  "meshes": [
    {
      "name": "Cube.009",
      "primitives": [
        {
          "attributes": {
            "POSITION": 0,
            "NORMAL": 1,
            "TEXCOORD_0": 2
          },
          "indices": 8,
          "material": 0
        },
        {
          "attributes": {
            "POSITION": 0,
            "NORMAL": 1,
            "TEXCOORD_0": 2
          },
          "indices": 9,
          "material": 1
        },
        {
          "attributes": {
            "POSITION": 0,
            "NORMAL": 1,
            "TEXCOORD_0": 2
          },
          "indices": 10,
          "material": 2
        },
        {
          "attributes": {
            "POSITION": 4,
            "NORMAL": 5,
            "TEXCOORD_0": 6
          },
          "indices": 11,
          "material": 1
        },
        {
          "attributes": {
            "POSITION": 4,
            "NORMAL": 5,
            "TEXCOORD_0": 6
          },
          "indices": 12,
          "material": 3
        }
      ]
    }
  ],
  "accessors": [
    {
      "bufferView": 0,
      "componentType": 5126,
      "count": 4929,
      "max": [
        0.0751739963889122,
        0.17087750136852264,
        0.25044819712638855
      ],
      "min": [
        -0.0751740038394928,
        -0.17090433835983276,
        -0.0011277049779891968
      ],
      "type": "VEC3"
    },
    {
      "bufferView": 1,
      "componentType": 5126,
      "count": 4929,
      "type": "VEC3"
    },
    {
      "bufferView": 2,
      "componentType": 5126,
      "count": 4929,
      "type": "VEC2"
    },
    {
      "bufferView": 3,
      "componentType": 5123,
      "count": 21390,
      "type": "SCALAR"
    },
    {
      "bufferView": 4,
      "componentType": 5126,
      "count": 1824,
      "max": [
        0.02878056839108467,
        0.005759254097938538,
        0.21408115327358246
      ],
      "min": [
        -0.032660942524671555,
        -0.09449193626642227,
        0.15263964235782623
      ],
      "type": "VEC3"
    },
    {
      "bufferView": 5,
      "componentType": 5126,
      "count": 1824,
      "type": "VEC3"
    },
    {
      "bufferView": 6,
      "componentType": 5126,
      "count": 1824,
      "type": "VEC2"
    },
    {
      "bufferView": 7,
      "componentType": 5123,
      "count": 8088,
      "type": "SCALAR"
    },
    {
      "bufferView": 8,
      "componentType": 5125,
      "count": 10374,
      "type": "SCALAR",
      "min": [
        0
      ],
      "max": [
        4928
      ]
    },
    {
      "bufferView": 9,
      "componentType": 5125,
      "count": 6096,
      "type": "SCALAR",
      "min": [
        556
      ],
      "max": [
        2167
      ]
    },
    {
      "bufferView": 10,
      "componentType": 5125,
      "count": 4920,
      "type": "SCALAR",
      "min": [
        1345
      ],
      "max": [
        4536
      ]
    },
    {
      "bufferView": 11,
      "componentType": 5125,
      "count": 2286,
      "type": "SCALAR",
      "min": [
        0
      ],
      "max": [
        422
      ]
    },
    {
      "bufferView": 12,
      "componentType": 5125,
      "count": 5802,
      "type": "SCALAR",
      "min": [
        423
      ],
      "max": [
        1823
      ]
    }
  ],
  "bufferViews": [
    {
      "buffer": 0,
      "byteLength": 59148,
      "byteOffset": 0,
      "target": 34962
    },
    {
      "buffer": 0,
      "byteLength": 59148,
      "byteOffset": 59148,
      "target": 34962
    },
    {
      "buffer": 0,
      "byteLength": 39432,
      "byteOffset": 118296,
      "target": 34962
    },
    {
      "buffer": 0,
      "byteLength": 42780,
      "byteOffset": 157728,
      "target": 34963
    },
    {
      "buffer": 0,
      "byteLength": 21888,
      "byteOffset": 200508,
      "target": 34962
    },
    {
      "buffer": 0,
      "byteLength": 21888,
      "byteOffset": 222396,
      "target": 34962
    },
    {
      "buffer": 0,
      "byteLength": 14592,
      "byteOffset": 244284,
      "target": 34962
    },
    {
      "buffer": 0,
      "byteLength": 16176,
      "byteOffset": 258876,
      "target": 34963
    },
    {
      "buffer": 1,
      "byteOffset": 0,
      "byteLength": 41496,
      "target": 34963
    },
    {
      "buffer": 1,
      "byteOffset": 41496,
      "byteLength": 24384,
      "target": 34963
    },
    {
      "buffer": 1,
      "byteOffset": 65880,
      "byteLength": 19680,
      "target": 34963
    },
    {
      "buffer": 1,
      "byteOffset": 85560,
      "byteLength": 9144,
      "target": 34963
    },
    {
      "buffer": 1,
      "byteOffset": 94704,
      "byteLength": 23208,
      "target": 34963
    }
  ],
  "buffers": [
    {
      "byteLength": 275052,
      "uri": "industrial_wall_sconce.bin"
    },
    {
      "uri": "parts.bin",
      "byteLength": 117912
    }
  ]
}
